<svg xmlns="http://www.w3.org/2000/svg" width="17" height="26.001" viewBox="0 0 17 26.001">
  <g id="blood_icon" transform="translate(-46.001 -386)">
    <path id="합치기_9" data-name="합치기 9" d="M2.051,21.046A6.473,6.473,0,0,1,0,16.33,6.354,6.354,0,0,1,.522,13.8H.484L7,0H7l6.517,13.8h-.038A6.36,6.36,0,0,1,14,16.33a6.473,6.473,0,0,1-2.05,4.717A7.132,7.132,0,0,1,7,23,7.133,7.133,0,0,1,2.051,21.046Z" transform="translate(49 389.001)" fill="#d3d3d3"/>
    <path id="합치기_1" data-name="합치기 1" d="M2.051,21.046A6.473,6.473,0,0,1,0,16.33,6.354,6.354,0,0,1,.522,13.8H.484L7,0H7l6.517,13.8h-.038A6.36,6.36,0,0,1,14,16.33a6.473,6.473,0,0,1-2.05,4.717A7.132,7.132,0,0,1,7,23,7.133,7.133,0,0,1,2.051,21.046Z" transform="translate(46 386.001)" fill="#de5b5b"/>
  </g>
</svg>
