<svg xmlns="http://www.w3.org/2000/svg" width="190.263" height="237.642" viewBox="0 0 190.263 237.642">
  <g id="complete_register" transform="translate(-84.5 -152.464)">
    <g id="icon_1_" data-name="icon (1)" transform="translate(85 226)">
      <path id="패스_3" data-name="패스 3" d="M51.646,308.885a3.64,3.64,0,1,0-2.578-1.064A3.671,3.671,0,0,0,51.646,308.885Zm0,0" transform="translate(-30.5 -190.039)" fill="#ff8181" stroke="#fff" stroke-width="1"/>
      <path id="패스_4" data-name="패스 4" d="M333.974,242.851a3.649,3.649,0,1,0-2.576-1.068A3.673,3.673,0,0,0,333.974,242.851Zm0,0" transform="translate(-208.153 -148.427)" fill="#ff8181" stroke="#fff" stroke-width="1"/>
      <path id="패스_5" data-name="패스 5" d="M373.974,242.851a3.649,3.649,0,1,0-2.576-1.068A3.673,3.673,0,0,0,373.974,242.851Zm0,0" transform="translate(-233.359 -148.427)" fill="#ff8181" stroke="#fff" stroke-width="1"/>
      <path id="패스_6" data-name="패스 6" d="M343.979,267.021a3.647,3.647,0,0,0,.635,3.928l3.585,3.945a3.645,3.645,0,0,0,5.4,0l3.583-3.945a3.645,3.645,0,0,0-2.7-6.1h-7.167a3.647,3.647,0,0,0-3.335,2.169Zm0,0" transform="translate(-216.483 -166.848)" fill="#ff8181" stroke="#fff" stroke-width="1"/>
      <path id="패스_7" data-name="패스 7" d="M185.566,114.931a3.7,3.7,0,0,0-3.7,3.7v8.321a17.365,17.365,0,0,1-9.241,15.279v-7.333a36.8,36.8,0,0,0-15.216-29.7,29,29,0,0,0,1.847-8.6l6.1-4.392A9.471,9.471,0,0,0,167.4,78.833c-.52-.695-1-1.362-1.467-2-3.425-4.719-6.66-9.176-14.8-9.176H117.6c-8.138,0-11.373,4.457-14.8,9.176-.462.637-.947,1.3-1.467,2a9.473,9.473,0,0,0,2.04,13.378l6.1,4.392a29,29,0,0,0,1.847,8.6,36.617,36.617,0,0,0-7.823,7.68v-5.621A40.445,40.445,0,0,0,68.279,67.2,22.837,22.837,0,0,0,74.67,51.343V34.2a19.221,19.221,0,0,0,8.5-15.949V7.384a3.7,3.7,0,0,0-3.7-3.7H46.761a17.95,17.95,0,0,0-17.928,17.93V51.343A22.837,22.837,0,0,0,35.224,67.2,40.445,40.445,0,0,0,0,107.256v55a3.7,3.7,0,0,0,3.7,3.7H166.33A11.488,11.488,0,0,0,177.8,154.474v-.211a9.74,9.74,0,0,0-1.714-5.506,24.8,24.8,0,0,0,13.173-21.808v-8.321a3.7,3.7,0,0,0-3.7-3.7ZM116.81,94.783c0-10.471,7.262-19.062,16.411-19.733h2.3c9.149.67,16.411,9.261,16.411,19.733,0,10.906-7.877,19.779-17.559,19.779s-17.559-8.873-17.559-19.779Zm43.141-13.607c.485.669.993,1.368,1.539,2.1a2.079,2.079,0,0,1-.448,2.936l-2.507,1.8a27.788,27.788,0,0,0-7.031-12.952c3.874.09,5.172,1.606,8.446,6.117Zm-53.1,3.658a2.059,2.059,0,0,1,.393-1.563c.546-.728,1.054-1.427,1.539-2.1,3.273-4.511,4.572-6.028,8.447-6.117A27.777,27.777,0,0,0,110.2,88.011l-2.507-1.8a2.063,2.063,0,0,1-.84-1.373ZM40.38,74.265H63.123c.261,0,.524,0,.786.01a12.209,12.209,0,0,1-24.313,0C39.856,74.268,40.117,74.265,40.38,74.265Zm26.9-36.785V51.344a15.525,15.525,0,1,1-31.051,0V37.48ZM36.226,21.618A10.548,10.548,0,0,1,46.761,11.081H75.779v7.174A11.843,11.843,0,0,1,63.95,30.086H36.226ZM7.393,107.256a33.05,33.05,0,0,1,24.872-31.98,19.6,19.6,0,0,0,38.972,0,33.05,33.05,0,0,1,24.872,31.98v38.305l-1.1.788a9.746,9.746,0,0,0-4.072,7.914v.211a11.436,11.436,0,0,0,.752,4.081H85.759V117.519a3.7,3.7,0,1,0-7.393,0v41.036H25.136V132.307a3.7,3.7,0,1,0-7.393,0v26.248H7.393ZM170.41,154.475a4.086,4.086,0,0,1-4.081,4.081H151.942a4.086,4.086,0,0,1-4.081-4.081,2.316,2.316,0,0,1,1.082-1.967l3.025-1.922a3.7,3.7,0,0,0,1.715-3.121V131.383a3.7,3.7,0,1,0-7.393,0v14.05l-1.311.832a9.678,9.678,0,0,0-4.511,8.21,11.436,11.436,0,0,0,.752,4.081h-13.7a11.436,11.436,0,0,0,.752-4.081,9.678,9.678,0,0,0-4.511-8.21l-1.311-.832v-14.05a3.7,3.7,0,1,0-7.393,0v16.082a3.7,3.7,0,0,0,1.715,3.121l3.025,1.921a2.32,2.32,0,0,1,1.082,1.967,4.085,4.085,0,0,1-4.081,4.083H102.408a4.086,4.086,0,0,1-4.081-4.083v-.211a2.329,2.329,0,0,1,.976-1.895l2.651-1.895a3.7,3.7,0,0,0,1.548-3.008V134.9a29.368,29.368,0,0,1,11.4-23.144,23.671,23.671,0,0,0,38.934,0,29.371,29.371,0,0,1,11.4,23.144v12.57h0a3.413,3.413,0,0,0,.026.419c0,.042.013.081.019.123.012.074.02.147.036.22,0,.023.012.045.016.066.009.039.02.078.03.117.026.1.055.194.088.287.012.03.022.061.033.091a3.638,3.638,0,0,0,.365.712l.045.065c.068.1.139.191.214.28.012.014.023.029.036.043a3.451,3.451,0,0,0,.277.286c.02.019.04.036.062.053.081.072.165.14.253.205.016.012.032.026.048.039l2.653,1.893a2.337,2.337,0,0,1,.976,1.9v.212Zm0,0" transform="translate(0 -2.343)" fill="#ff8181" stroke="#fff" stroke-width="1"/>
      <path id="패스_8" data-name="패스 8" d="M495.646,272.14a3.647,3.647,0,1,0-2.578-1.068A3.675,3.675,0,0,0,495.646,272.14Zm0,0" transform="translate(-310.029 -166.882)" fill="#ff8181" stroke="#fff" stroke-width="1"/>
      <path id="패스_9" data-name="패스 9" d="M310.619,33.873a97.9,97.9,0,0,0,10.246,8.22,3.646,3.646,0,0,0,4.1,0,98,98,0,0,0,10.247-8.22c7.4-6.842,10.99-12.657,10.99-17.779C346.2,7.219,339.463,0,331.18,0a14.376,14.376,0,0,0-8.264,2.655A14.376,14.376,0,0,0,314.651,0c-8.284,0-15.022,7.219-15.022,16.093C299.629,21.216,303.223,27.032,310.619,33.873Zm4.032-26.581a7.251,7.251,0,0,1,5.507,2.633,3.646,3.646,0,0,0,5.514,0,7.246,7.246,0,0,1,5.506-2.633c4.264,0,7.732,3.948,7.732,8.8,0,4.829-8.77,13.209-16,18.519-7.225-5.3-15.993-13.678-15.993-18.519S310.388,7.292,314.651,7.292Zm0,0" transform="translate(-188.365)" fill="#ff8181" stroke="#fff" stroke-width="1"/>
    </g>
    <path id="패스_42" data-name="패스 42" d="M994.283,460.865l22.118,22.118L1061.385,438" transform="translate(-836 -282)" fill="none" stroke="#ff8181" stroke-width="10"/>
  </g>
</svg>
