<svg xmlns="http://www.w3.org/2000/svg" width="65.528" height="73.884" viewBox="0 0 65.528 73.884">
  <g id="doctor_with_dog" transform="translate(-28.952)">
    <g id="그룹_71" data-name="그룹 71" transform="translate(28.952)">
      <path id="패스_10" data-name="패스 10" d="M94.434,70.1,91.165,50.965a5.447,5.447,0,0,0-3.817-4.322l-8.816-2.66a9.833,9.833,0,0,0-6.823-8.539c.279-.31.538-.618.775-.92a17.111,17.111,0,0,0,3.5-7.608h.68a3.212,3.212,0,0,0,3.208-3.208V22.063a3.23,3.23,0,0,0-1.663-2.805V15.3a1.082,1.082,0,1,0-2.164,0v4.439a6.669,6.669,0,0,0-1.438.416,1.086,1.086,0,0,0-.152.068c-.116.053-.232.109-.348.172V11.68a4.373,4.373,0,0,0-4.369-4.369H66.756a4.489,4.489,0,0,0-2.834,1.011l-.293.24a3.022,3.022,0,0,1-3.826,0l-.293-.24a4.489,4.489,0,0,0-2.834-1.011H53.69a4.373,4.373,0,0,0-4.369,4.369V20.4c-.116-.063-.232-.119-.348-.172a1.085,1.085,0,0,0-.152-.068,6.671,6.671,0,0,0-1.438-.416V8.518a6.361,6.361,0,0,1,6.354-6.354H69.7A6.361,6.361,0,0,1,76.05,8.518v1.7a1.082,1.082,0,1,0,2.164,0v-1.7A8.527,8.527,0,0,0,69.7,0H53.736a8.527,8.527,0,0,0-8.518,8.518V19.258a3.23,3.23,0,0,0-1.663,2.805v1.644a3.212,3.212,0,0,0,3.208,3.208h.68a17.11,17.11,0,0,0,3.5,7.608c.237.3.5.61.774.919a9.869,9.869,0,0,0-6.822,8.54l-8.816,2.66a5.446,5.446,0,0,0-3.817,4.322L30.94,58.736a1.082,1.082,0,0,0,2.133.364L34.4,51.33a3.294,3.294,0,0,1,2.309-2.615l8.154-2.46V48.4A5.413,5.413,0,0,0,40.749,51.8a5.487,5.487,0,0,0-.321,1.469L39.64,63.386a2.75,2.75,0,0,0,2.742,2.964H43.73a1.082,1.082,0,1,0,0-2.164H42.381a.586.586,0,0,1-.584-.632l.788-10.115a3.322,3.322,0,0,1,.195-.89,3.272,3.272,0,0,1,3.063-2.085h.2A3.242,3.242,0,0,1,49.066,52.4a3.318,3.318,0,0,1,.253,1.039l.788,10.115a.586.586,0,0,1-.584.631H48.174a1.082,1.082,0,1,0,0,2.164h1.349a2.75,2.75,0,0,0,2.742-2.964l-.788-10.115a5.48,5.48,0,0,0-.418-1.715,5.356,5.356,0,0,0-4.032-3.168V45.6l3.719-1.122c.338.713,1.009,2.253,2.337,5.573,1.339,3.35,3,7.644,4.6,11.818q.017.053.039.1c1.065,2.787,2.1,5.516,2.982,7.871a1.082,1.082,0,0,0,2.026,0c.883-2.354,1.917-5.084,2.982-7.871a1.076,1.076,0,0,0,.039-.1c1.595-4.172,3.258-8.463,4.6-11.812,1.33-3.324,2-4.866,2.34-5.579L76.4,45.6v6.391a5.6,5.6,0,1,0,2.164,0V46.255l8.154,2.46a3.3,3.3,0,0,1,2.309,2.615L92.3,70.465a1.074,1.074,0,0,1-1.059,1.255H32.19a1.074,1.074,0,0,1-1.059-1.255L32.21,64.15a1.082,1.082,0,0,0-2.133-.364L29,70.1a3.238,3.238,0,0,0,3.192,3.783H91.242A3.238,3.238,0,0,0,94.434,70.1ZM76.063,21.947a4.643,4.643,0,0,1,1.044-.141,1.106,1.106,0,0,0,.529-.126,1.025,1.025,0,0,1,.077.383v1.644a1.045,1.045,0,0,1-1.044,1.044h-.606V21.947ZM47.369,24.752h-.606a1.045,1.045,0,0,1-1.044-1.044V22.064a1.027,1.027,0,0,1,.077-.383,1.1,1.1,0,0,0,.529.125,4.823,4.823,0,0,1,1.044.142v2.8Zm2.164,1.213V23.123a1.518,1.518,0,0,0,1.952-1.455V11.68a2.207,2.207,0,0,1,2.2-2.2h2.986A2.319,2.319,0,0,1,58.14,10l.293.24a5.187,5.187,0,0,0,6.566,0l.293-.24a2.319,2.319,0,0,1,1.464-.522h2.986a2.207,2.207,0,0,1,2.2,2.2v9.988A1.518,1.518,0,0,0,73.9,23.124v2.841c0,1.58-1.092,4.647-3.116,7.221a14.264,14.264,0,0,1-2.593,2.569,1.086,1.086,0,0,0-.1.073,10.547,10.547,0,0,1-12.754,0,1.1,1.1,0,0,0-.1-.073,14.275,14.275,0,0,1-2.593-2.569C50.625,30.613,49.533,27.545,49.533,25.965ZM68.8,43.446l-7.088,5.3-7.088-5.3a5.131,5.131,0,0,0,1.1-3.064V38.638a12.706,12.706,0,0,0,11.983,0v1.744A5.131,5.131,0,0,0,68.8,43.446ZM52.822,42.238A2.958,2.958,0,0,0,51,42.146l-.078.021-3.738,1.128a7.686,7.686,0,0,1,6.379-6.062v3.149A2.861,2.861,0,0,1,52.822,42.238Zm2.936,8.685-.006-.015L55.59,50.5l-.029-.073-.156-.393L55.394,50q-.24-.6-.464-1.16l-.032-.081-.126-.314-.046-.113-.12-.3-.035-.086-.21-.517-.056-.137-.079-.194-.084-.205-.032-.077-.024-.059q-.187-.455-.356-.859l0-.006-.175-.417-.086-.2,6.1,4.556-2.547,1.082L57,50.922l-1.064.452Zm2.582,6.625q-.321-.832-.645-1.669-.506-1.307-.968-2.489l.4-.172,1.65,1.918Zm3.4,8.794a1.077,1.077,0,0,0-.111-.182c-.489-1.292-1.109-2.927-1.8-4.726l1.01-5.53h1.752l1.01,5.53C62.882,63.318,62.236,65.023,61.737,66.342ZM63,53.74H60.435l-1.213-1.41,2.494-1.06,2.494,1.06Zm2.739,2.139q-.324.836-.645,1.669l-.441-2.413,1.65-1.918.4.172Q66.242,54.573,65.737,55.879Zm4.144-10.4-.166.394-.022.053-.172.414-.012.029-.157.38-.029.071-.037.089-.072.175-.09.219-.029.072-.232.57-.037.092-.119.294-.047.117-.125.311-.036.089q-.22.548-.457,1.144l-.016.039-.155.39-.029.074-.163.413,0,.008-.18.456-1.065-.452-.011,0-2.549-1.083,6.1-4.556Zm2.631-3.315h0a2.957,2.957,0,0,0-1.9.072,2.86,2.86,0,0,1-.739-1.856V37.231A7.626,7.626,0,0,1,76.254,43.3Zm8.4,15.32a3.434,3.434,0,1,1-3.434-3.434A3.438,3.438,0,0,1,80.909,57.487Z" transform="translate(-28.952)" fill="#707070"/>
    </g>
  </g>
</svg>
