<svg xmlns="http://www.w3.org/2000/svg" width="53.611" height="47.684" viewBox="0 0 53.611 47.684">
  <g id="dogs" transform="translate(0.75 0.859)">
    <path id="패스_28" data-name="패스 28" d="M5.481,24.361c-.019-.114.007-.934.009-.22H5.481s.009.061.009,0l-.009-8.689a1.205,1.205,0,0,1,1.7-1.1,10.553,10.553,0,0,1,4.158,3.317,11.245,11.245,0,0,1,3.017-5.154,1.206,1.206,0,0,1,1.68,0,11.258,11.258,0,0,1,3.4,8.034v5.492a1.192,1.192,0,0,1-.011.154c.15.519.312,1.041.493,1.56l.5,1.42H34.319c.666,0-.666,0,0,0h3.8a7.328,7.328,0,0,1,5,1.963,6.547,6.547,0,0,0,6.694-3.781,1.206,1.206,0,1,1,2.183,1.023A8.6,8.6,0,0,1,46.056,33.3a9.738,9.738,0,0,1-1.23.21,7.313,7.313,0,0,1,.648,3.013v.8c0,.107,0,.213,0,.318a59.411,59.411,0,0,0,1.492,15.716l.123.514A3.559,3.559,0,0,1,40.239,55.8l-1.9-5.74L36.447,55.8A3.559,3.559,0,0,1,29.6,53.881l1.5-6.461H23.14l1.5,6.461A3.559,3.559,0,0,1,17.8,55.8l-1.9-5.769a6.29,6.29,0,0,0-.883,1.694l-1.393,4.1a3.568,3.568,0,0,1-6.853-1.956L7.83,49.289A59.66,59.66,0,0,0,9.3,35.585v-.323H3.987a3.985,3.985,0,0,1-1.735-7.573l1.9-.919a7.652,7.652,0,0,0,1.329-2.408Z" transform="translate(-0.001 -12.172)" fill="#fff" stroke="#ff8181" stroke-width="1.5" opacity="0.9"/>
  </g>
</svg>
