<svg xmlns="http://www.w3.org/2000/svg" width="23.812" height="18.417" viewBox="0 0 23.812 18.417">
  <g id="eyes_on" transform="translate(0 -58)">
    <g id="그룹_118" data-name="그룹 118" transform="translate(0 58)">
      <g id="그룹_117" data-name="그룹 117" transform="translate(0 0)">
        <path id="패스_30" data-name="패스 30" d="M170.189,274a4.186,4.186,0,1,0,4.186,4.186A4.19,4.19,0,0,0,170.189,274Zm0,6.511a2.325,2.325,0,1,1,2.325-2.325A2.328,2.328,0,0,1,170.189,280.511Z" transform="translate(-158.283 -263.954)" fill="#ff8181"/>
        <path id="패스_31" data-name="패스 31" d="M23.712,70.028a12.29,12.29,0,0,0-4.7-4.98l2.518-2.518a.93.93,0,1,0-1.315-1.315l-2.954,2.954a13.923,13.923,0,0,0-4.422-1.023V58.93a.93.93,0,1,0-1.86,0v4.216a13.923,13.923,0,0,0-4.422,1.023L3.6,61.215A.93.93,0,1,0,2.285,62.53L4.8,65.048a12.29,12.29,0,0,0-4.7,4.98.93.93,0,0,0,1.661.838,11.261,11.261,0,0,1,10.145-5.89,11.261,11.261,0,0,1,10.145,5.89.93.93,0,1,0,1.661-.838Z" transform="translate(0 -58)" fill="#ff8181"/>
      </g>
    </g>
  </g>
</svg>
