<svg xmlns="http://www.w3.org/2000/svg" width="23.812" height="13.378" viewBox="0 0 23.812 13.378">
  <g id="eyes_off" transform="translate(0 -5.039)">
    <g id="그룹_118" data-name="그룹 118" transform="translate(0)">
      <g id="그룹_117" data-name="그룹 117" transform="translate(0 0)">
        <path id="패스_31" data-name="패스 31" d="M23.712,59.35a12.29,12.29,0,0,1-4.7,4.98l2.518,2.518a.93.93,0,1,1-1.315,1.315l-2.954-2.954a13.923,13.923,0,0,1-4.422,1.023v4.216a.93.93,0,0,1-1.86,0V66.232a13.923,13.923,0,0,1-4.422-1.023L3.6,68.163a.93.93,0,1,1-1.315-1.315L4.8,64.33A12.29,12.29,0,0,1,.1,59.35a.93.93,0,0,1,1.661-.838A11.261,11.261,0,0,0,11.906,64.4a11.261,11.261,0,0,0,10.145-5.89.93.93,0,1,1,1.661.838Z" transform="translate(0 -52.961)" fill="#ff8181"/>
      </g>
    </g>
  </g>
</svg>
