<svg xmlns="http://www.w3.org/2000/svg" width="86.466" height="74.88" viewBox="0 0 86.466 74.88">
  <g id="human_with_dog" transform="translate(0.5 0.5)">
    <path id="패스_3" data-name="패스 3" d="M49.646,304.889a1.644,1.644,0,1,0-1.164-.48A1.658,1.658,0,0,0,49.646,304.889Zm0,0" transform="translate(-40.097 -251.221)" fill="#ff8181" stroke="#fff" stroke-width="1"/>
    <path id="패스_4" data-name="패스 4" d="M331.974,238.852a1.648,1.648,0,1,0-1.163-.482A1.658,1.658,0,0,0,331.974,238.852Zm0,0" transform="translate(-275.157 -196.213)" fill="#ff8181" stroke="#fff" stroke-width="1"/>
    <path id="패스_5" data-name="패스 5" d="M371.974,238.852a1.648,1.648,0,1,0-1.163-.482A1.658,1.658,0,0,0,371.974,238.852Zm0,0" transform="translate(-308.477 -196.213)" fill="#ff8181" stroke="#fff" stroke-width="1"/>
    <path id="패스_6" data-name="패스 6" d="M343.808,265.831a1.647,1.647,0,0,0,.287,1.774l1.619,1.781a1.646,1.646,0,0,0,2.437,0l1.618-1.781a1.646,1.646,0,0,0-1.219-2.753h-3.236a1.647,1.647,0,0,0-1.506.979Zm0,0" transform="translate(-286.235 -220.596)" fill="#ff8181" stroke="#fff" stroke-width="1"/>
    <path id="패스_7" data-name="패스 7" d="M83.8,53.922a1.669,1.669,0,0,0-1.669,1.669v3.758a7.842,7.842,0,0,1-4.173,6.9V62.937a16.617,16.617,0,0,0-6.871-13.411,13.1,13.1,0,0,0,.834-3.881l2.756-1.983a4.277,4.277,0,0,0,.922-6.041c-.235-.314-.454-.615-.662-.9-1.547-2.131-3.007-4.144-6.682-4.144H53.1c-3.675,0-5.136,2.012-6.682,4.144-.209.288-.428.589-.662.9a4.278,4.278,0,0,0,.921,6.041l2.756,1.983a13.1,13.1,0,0,0,.834,3.881,16.535,16.535,0,0,0-3.533,3.468V50.456A18.264,18.264,0,0,0,30.833,32.367a10.313,10.313,0,0,0,2.886-7.16V17.468a8.68,8.68,0,0,0,3.839-7.2V5.357a1.669,1.669,0,0,0-1.669-1.669H21.116a8.106,8.106,0,0,0-8.1,8.1V25.207a10.313,10.313,0,0,0,2.886,7.16A18.264,18.264,0,0,0,0,50.456V75.291A1.67,1.67,0,0,0,1.669,76.96H75.11a5.188,5.188,0,0,0,5.181-5.182v-.1a4.4,4.4,0,0,0-.774-2.487,11.2,11.2,0,0,0,5.949-9.848V55.591A1.669,1.669,0,0,0,83.8,53.922Zm-31.048-9.1c0-4.729,3.279-8.608,7.411-8.911H61.2c4.131.3,7.411,4.182,7.411,8.911,0,4.925-3.557,8.932-7.929,8.932s-7.929-4.007-7.929-8.932ZM72.23,38.679c.219.3.449.618.7.946a.939.939,0,0,1-.2,1.326l-1.132.815a12.548,12.548,0,0,0-3.175-5.849c1.749.04,2.336.725,3.814,2.762ZM48.252,40.331a.93.93,0,0,1,.177-.706c.246-.329.476-.644.7-.946,1.478-2.037,2.064-2.722,3.814-2.762a12.543,12.543,0,0,0-3.175,5.849l-1.132-.815a.932.932,0,0,1-.379-.62ZM18.235,35.558H28.5c.118,0,.237,0,.355,0a5.513,5.513,0,0,1-10.979,0C18,35.559,18.116,35.558,18.235,35.558ZM30.38,18.947v6.26a7.011,7.011,0,1,1-14.022,0v-6.26ZM16.359,11.784a4.763,4.763,0,0,1,4.757-4.758h13.1v3.24a5.348,5.348,0,0,1-5.342,5.342H16.359ZM3.338,50.456A14.924,14.924,0,0,1,14.57,36.015a8.852,8.852,0,0,0,17.6,0A14.924,14.924,0,0,1,43.4,50.456v17.3l-.5.356a4.4,4.4,0,0,0-1.839,3.574v.1a5.164,5.164,0,0,0,.34,1.843H38.727V55.091a1.669,1.669,0,1,0-3.338,0V73.621H11.351V61.768a1.669,1.669,0,1,0-3.338,0V73.621H3.338ZM76.952,71.779a1.845,1.845,0,0,1-1.843,1.843h-6.5a1.845,1.845,0,0,1-1.843-1.843,1.046,1.046,0,0,1,.488-.888l1.366-.868a1.669,1.669,0,0,0,.775-1.409V61.351a1.669,1.669,0,1,0-3.339,0V67.7l-.592.376a4.37,4.37,0,0,0-2.037,3.707,5.164,5.164,0,0,0,.34,1.843H57.583a5.164,5.164,0,0,0,.34-1.843,4.37,4.37,0,0,0-2.037-3.707l-.592-.376V61.351a1.669,1.669,0,1,0-3.338,0v7.262a1.669,1.669,0,0,0,.775,1.409l1.366.867a1.047,1.047,0,0,1,.488.888,1.845,1.845,0,0,1-1.843,1.844h-6.5A1.845,1.845,0,0,1,44.4,71.778v-.1a1.052,1.052,0,0,1,.441-.856l1.2-.856a1.67,1.67,0,0,0,.7-1.358V62.937a13.262,13.262,0,0,1,5.148-10.451,10.689,10.689,0,0,0,17.581,0,13.263,13.263,0,0,1,5.147,10.451v5.676h0a1.541,1.541,0,0,0,.012.189c0,.019.006.037.008.055s.009.067.016.1c0,.01.005.02.007.03s.009.035.014.053c.012.044.025.087.04.13l.015.041a1.643,1.643,0,0,0,.165.321l.02.029c.031.044.063.086.1.127l.016.02a1.559,1.559,0,0,0,.125.129l.028.024c.037.033.074.063.114.093l.022.018,1.2.855a1.055,1.055,0,0,1,.441.856v.1Zm0,0" transform="translate(0 -3.08)" fill="#ff8181" stroke="#fff" stroke-width="1"/>
    <path id="패스_8" data-name="패스 8" d="M493.646,268.141a1.647,1.647,0,1,0-1.164-.482A1.659,1.659,0,0,0,493.646,268.141Zm0,0" transform="translate(-409.827 -220.609)" fill="#ff8181" stroke="#fff" stroke-width="1"/>
    <path id="패스_9" data-name="패스 9" d="M304.591,15.3a44.207,44.207,0,0,0,4.627,3.712,1.647,1.647,0,0,0,1.852,0A44.254,44.254,0,0,0,315.7,15.3c3.34-3.09,4.963-5.715,4.963-8.029A7.046,7.046,0,0,0,313.876,0a6.492,6.492,0,0,0-3.732,1.2A6.492,6.492,0,0,0,306.412,0a7.045,7.045,0,0,0-6.784,7.267C299.629,9.581,301.252,12.207,304.591,15.3Zm1.821-12A3.274,3.274,0,0,1,308.9,4.482a1.646,1.646,0,0,0,2.49,0,3.272,3.272,0,0,1,2.486-1.189,3.76,3.76,0,0,1,3.491,3.974c0,2.181-3.96,5.965-7.224,8.362-3.263-2.394-7.222-6.176-7.222-8.362A3.761,3.761,0,0,1,306.412,3.293Zm0,0" transform="translate(-249.385)" fill="#ff8181" stroke="#fff" stroke-width="1"/>
  </g>
</svg>
